<svg width="28" height="35" viewBox="0 0 28 35" fill="none" xmlns="http://www.w3.org/2000/svg">
<path d="M13.1827 7.4573C13.3578 7.4573 13.4454 7.34986 13.4892 7.18109C13.9416 4.61859 13.9124 4.55725 16.4519 4.05085C16.627 4.02021 16.7292 3.91278 16.7292 3.72862C16.7292 3.54452 16.627 3.43709 16.4519 3.40638C13.927 2.86941 14 2.808 13.4892 0.276211C13.4454 0.107433 13.3578 0 13.1827 0C13.0075 0 12.92 0.107433 12.8762 0.276211C12.3654 2.808 12.453 2.86941 9.91352 3.40638C9.75298 3.43709 9.63623 3.54452 9.63623 3.72862C9.63623 3.91278 9.75298 4.02021 9.91352 4.05085C12.453 4.58795 12.4238 4.61859 12.8762 7.18109C12.92 7.34986 13.0075 7.4573 13.1827 7.4573ZM6.11895 18.0141C6.39624 18.0141 6.58598 17.8299 6.61512 17.5537C7.14056 13.4568 7.27189 13.4568 11.3 12.6436C11.5627 12.5975 11.7524 12.4134 11.7524 12.1219C11.7524 11.8457 11.5627 11.6462 11.3 11.6002C7.27189 11.0171 7.12593 10.879 6.61512 6.70539C6.58598 6.42925 6.39624 6.22977 6.11895 6.22977C5.85624 6.22977 5.6665 6.42925 5.63729 6.72078C5.1557 10.833 4.95133 10.8177 0.952455 11.6002C0.689737 11.6616 0.5 11.8457 0.5 12.1219C0.5 12.4288 0.689737 12.5975 1.0108 12.6436C4.98053 13.3187 5.1557 13.4262 5.63729 17.523C5.6665 17.8299 5.85624 18.0141 6.11895 18.0141ZM16.0141 35C16.3935 35 16.6708 34.7085 16.7438 34.2942C17.78 25.8856 18.9038 24.612 26.814 23.6913C27.2227 23.6453 27.5 23.3231 27.5 22.9242C27.5 22.5252 27.2227 22.2183 26.814 22.157C18.9038 21.2363 17.78 19.9627 16.7438 11.5542C16.6708 11.1399 16.3935 10.8637 16.0141 10.8637C15.6346 10.8637 15.3573 11.1399 15.299 11.5542C14.2627 19.9627 13.1244 21.2363 5.22861 22.157C4.80543 22.2183 4.52814 22.5252 4.52814 22.9242C4.52814 23.3231 4.80543 23.6453 5.22861 23.6913C13.1097 24.7808 14.2043 25.901 15.299 34.2942C15.3573 34.7085 15.6346 35 16.0141 35Z" fill="#E0D81B"/>
</svg>
